# xmcd
#
# Track frame offsets:
#	150
#	46426
#	115051
#	164326
#	218252
#	262802
#	265652
#	268502
#	269928
#	271054
#	274075
#	277291
#	279979
#	283036
#	288545
#	290917
#	292716
#	296201
#	298347
#	302030
#	306266
#	312467
#	314701
#	316058
#	327758
#
# Disc length: 4567 seconds
# Revision: 0
# Processed by: cddbd v1.5.2PL0 Copyright (c) Steve Scherf et al.
# Submitted via: dBpowerAMP V12.0
#
DISCID=a511d519
DTITLE=Shelby Lynne - Identity Crises radio promo
DYEAR=2003
DGENRE=Country
TTITLE0=we'll be right back
TTITLE1=stay tuned
TTITLE2=stay tuned
TTITLE3=we'll be right back
TTITLE4=thank you, man. Enjoyed it
TTITLE5=Rusty Miller Radio Special
TTITLE6=Shelby Lynne Radio Special
TTITLE7=Rusty Miller promo
TTITLE8=Shelby Lynne promo
TTITLE9=Tell us about your southern roots
TTITLE10=Tell us about some of your influences
TTITLE11=Talk about blending styles in your music
TTITLE12=Can you explain your songwriting process
TTITLE13=Tell us about your recent albums
TTITLE14=How did it feel to win a Grammy
TTITLE15=So you're kind of a homebody, right
TTITLE16=You pretty much did this whole album yourself
TTITLE17=So "Identity Crisis" is a truly a homegrown album
TTITLE18=You did a great jobof production
TTITLE19=You even played drums
TTITLE20=When did you write these songs
TTITLE21=What is a typical day in the life of Shelby Lynne like
TTITLE22=What's next for you, Shelby
TTITLE23=Thanks, Shelby
TTITLE24=DATA
EXTD=
EXTT0=
EXTT1=
EXTT2=
EXTT3=
EXTT4=
EXTT5=
EXTT6=
EXTT7=
EXTT8=
EXTT9=
EXTT10=
EXTT11=
EXTT12=
EXTT13=
EXTT14=
EXTT15=
EXTT16=
EXTT17=
EXTT18=
EXTT19=
EXTT20=
EXTT21=
EXTT22=
EXTT23=
EXTT24=
PLAYORDER=
